<?xml version="1.0" standalone="no"?>
<!DOCTYPE svg PUBLIC "-//W3C//DTD SVG 20010904//EN"
 "http://www.w3.org/TR/2001/REC-SVG-20010904/DTD/svg10.dtd">
<svg version="1.0" xmlns="http://www.w3.org/2000/svg"
 width="564.000000pt" height="1065.000000pt" viewBox="0 0 564.000000 1065.000000"
 preserveAspectRatio="xMidYMid meet">
<metadata>
Created by potrace 1.16, written by Peter Selinger 2001-2019
</metadata>
<g transform="translate(0.000000,1065.000000) scale(0.100000,-0.100000)"
fill="#000000" stroke="none">
<path d="M0 7511 l0 -3138 25 5 c38 7 84 -17 101 -52 l15 -31 -21 28 c-12 15
-31 27 -43 26 -21 0 -21 -1 3 -10 31 -13 32 -13 24 -33 -5 -14 -9 -15 -15 -4
-7 10 -9 9 -9 -5 0 -14 -5 -17 -20 -12 -11 3 -29 3 -40 0 -20 -6 -20 -14 -18
-190 2 -101 6 -181 10 -179 5 3 8 1 8 -5 0 -5 -5 -13 -10 -16 -6 -4 -7 -12 -1
-22 5 -10 5 -29 0 -47 -5 -17 -9 -208 -9 -423 0 -337 2 -393 14 -393 8 0 93
-7 188 -15 331 -27 1189 -67 1261 -58 30 4 37 9 37 27 0 12 7 32 16 44 9 13
14 26 11 29 -7 7 -37 -52 -37 -72 0 -14 -7 -16 -41 -10 -29 5 -44 3 -49 -5 -6
-9 -11 -7 -19 9 -7 12 -17 19 -23 15 -7 -5 -9 -2 -6 8 11 29 -73 78 -98 57
-11 -9 -25 -6 -65 15 -38 20 -66 26 -111 26 -48 0 -59 3 -55 14 10 25 -15 32
-118 34 -54 2 -102 6 -105 10 -9 12 -49 32 -64 32 -8 0 -16 6 -19 14 -3 8 -22
16 -44 18 -30 2 -37 7 -35 21 2 9 -2 17 -9 17 -6 0 -9 7 -5 18 3 9 -5 4 -19
-13 -22 -27 -25 -28 -25 -9 0 61 133 105 187 62 9 -7 15 -3 22 14 13 35 65 76
114 89 53 14 110 -2 148 -42 15 -16 37 -29 49 -29 34 0 90 -62 90 -98 0 -17
-6 -34 -12 -39 -9 -5 -1 -10 22 -13 28 -4 38 -12 51 -40 9 -19 18 -33 20 -31
10 10 47 -12 59 -34 7 -14 15 -23 17 -21 11 10 -30 66 -52 72 -13 3 -27 15
-30 25 -4 11 -20 32 -36 47 -22 20 -30 38 -32 69 -1 22 -6 39 -10 36 -5 -3
-18 4 -30 15 -12 12 -34 22 -49 24 -28 4 -78 50 -78 71 0 7 4 6 11 -3 8 -12
10 -12 7 -1 -6 23 -150 15 -199 -11 -22 -11 -43 -18 -46 -14 -4 3 -2 6 4 6 6
0 9 9 6 20 -4 15 0 20 13 20 16 0 17 2 4 10 -8 5 -11 10 -7 10 4 0 2 6 -5 14
-16 17 -32 -2 -17 -20 7 -8 6 -15 -2 -19 -12 -8 -31 14 -23 27 3 4 -4 8 -15 8
-12 0 -21 3 -21 8 0 4 -16 24 -35 45 -19 21 -35 42 -35 47 0 4 -3 17 -6 27 -3
10 2 6 11 -9 19 -34 29 -36 19 -5 -4 12 -7 28 -7 35 0 6 -2 10 -5 7 -3 -2 -17
4 -32 15 -16 11 -35 20 -43 20 -22 0 -32 21 -16 31 11 6 10 9 -2 14 -11 4 -14
14 -11 32 3 15 -1 29 -9 34 -11 7 -10 9 4 9 15 0 14 7 -13 53 -16 28 -36 53
-45 55 -19 4 -19 11 2 34 15 17 14 18 -25 18 -29 0 -49 7 -71 26 -17 14 -36
24 -43 22 -6 -2 5 -14 25 -27 20 -12 37 -28 37 -34 0 -8 -3 -8 -8 -2 -23 32
-106 63 -117 45 -3 -5 5 -10 17 -12 29 -4 26 -21 -4 -29 l-23 -6 25 -5 c24 -5
24 -5 -3 -7 -32 -1 -57 -21 -57 -45 0 -20 -10 -20 -46 -1 -34 17 -60 19 -69 5
-3 -5 2 -10 12 -10 14 0 15 -2 5 -9 -15 -9 -62 8 -62 22 0 5 -20 5 -45 1 -36
-5 -45 -3 -45 8 0 18 44 68 60 68 5 0 10 9 10 21 0 13 -4 18 -13 13 -7 -4 -9
-3 -4 2 9 9 14 11 46 13 12 1 21 11 24 29 16 73 123 142 203 129 78 -13 164
-98 164 -164 0 -18 5 -33 10 -33 12 0 12 36 1 65 -5 11 -4 29 2 40 9 17 8 18
-5 8 -8 -7 -18 -10 -21 -6 -11 10 -8 23 4 21 16 -4 21 14 9 32 -9 13 -12 13
-21 -3 -10 -17 -29 -15 -29 4 0 6 5 7 10 4 6 -3 10 -1 10 4 0 6 -5 11 -11 11
-5 0 -8 4 -5 9 4 5 -9 8 -27 7 -20 -2 -34 2 -34 8 0 7 9 12 19 12 10 0 18 -4
18 -8 0 -4 7 -5 15 -2 8 4 17 -1 21 -10 3 -9 11 -16 18 -16 6 -1 24 -11 40
-24 28 -23 30 -24 62 -8 22 11 32 22 28 33 -4 13 4 15 52 11 50 -4 56 -3 51
11 -4 10 14 2 43 -19 28 -20 50 -37 50 -37 0 -1 -26 -3 -58 -4 -74 -2 -113
-10 -136 -28 -16 -12 -17 -16 -4 -28 8 -8 23 -17 34 -20 14 -3 11 -6 -15 -12
-30 -7 -32 -10 -17 -20 9 -7 16 -18 16 -26 0 -10 3 -10 12 -1 7 7 19 12 28 12
23 0 60 -45 60 -73 1 -81 25 -121 49 -79 9 15 10 15 11 0 0 -9 -5 -18 -12 -20
-7 -3 -9 -14 -4 -31 6 -24 9 -25 26 -15 10 7 21 20 23 30 3 10 14 18 26 18 16
0 21 6 21 25 0 18 5 25 19 25 10 0 21 9 24 20 3 11 12 20 21 20 9 0 16 8 16
19 0 15 9 20 46 23 44 3 45 2 42 -23 -3 -21 -1 -25 14 -21 15 3 16 7 7 18 -7
8 -9 18 -4 22 4 4 21 -10 38 -31 18 -20 36 -37 41 -37 6 0 1 7 -10 15 -11 8
-14 15 -6 15 6 0 21 -9 32 -20 11 -11 22 -20 24 -20 7 0 106 -63 106 -67 0 -2
-5 -1 -12 3 -7 4 -8 3 -4 -5 4 -6 11 -9 16 -6 4 3 34 -9 65 -25 31 -17 63 -30
71 -30 8 0 14 -5 14 -11 0 -5 6 -7 13 -3 9 5 9 4 1 -5 -10 -10 -24 -16 -54
-20 -3 -1 -11 -11 -19 -24 -13 -20 -13 -21 2 -8 23 18 21 5 -3 -26 -11 -14
-20 -34 -20 -44 0 -10 -5 -21 -11 -25 -25 -15 -3 -142 39 -228 3 -5 -1 -5 -9
0 -12 6 -12 5 0 -9 8 -10 16 -15 19 -13 7 8 62 -27 62 -39 -1 -5 -7 -21 -15
-35 -19 -34 -19 -121 0 -146 14 -18 15 -17 8 11 -13 51 -8 108 12 151 20 39
20 40 1 42 -10 0 -30 11 -44 24 -103 95 -74 320 51 384 15 8 39 33 52 55 14
22 36 44 49 49 28 10 43 79 19 93 -26 15 -46 72 -46 127 0 62 21 112 58 136
14 9 25 25 25 36 0 44 47 102 100 125 42 17 110 19 140 3 16 -9 25 -9 36 0 7
7 26 10 41 7 30 -6 54 16 78 70 11 27 20 33 45 33 21 0 30 4 27 13 -2 6 0 23
5 35 6 18 3 31 -12 52 -11 15 -20 39 -20 53 0 36 36 77 68 77 l27 1 -28 15
c-15 8 -32 26 -37 39 -7 19 -17 24 -59 26 -28 2 -51 1 -51 -2 0 -10 80 -30 92
-23 7 4 8 3 4 -4 -4 -6 -2 -22 5 -34 9 -17 9 -23 0 -26 -6 -2 -20 -21 -30 -43
-11 -21 -14 -36 -9 -32 7 3 8 1 4 -6 -4 -6 -1 -22 7 -35 10 -15 12 -27 6 -39
-8 -13 -6 -15 6 -11 8 4 15 1 15 -6 0 -8 -9 -11 -25 -8 -13 3 -22 1 -19 -3 3
-5 13 -9 22 -10 10 -1 7 -4 -8 -8 -14 -4 -31 -20 -39 -36 -17 -36 -61 -91 -61
-76 0 12 -63 3 -68 -10 -2 -5 -11 -2 -19 7 -9 8 -22 13 -31 9 -8 -3 -20 -1
-28 5 -14 13 -94 -4 -94 -20 0 -5 -7 -6 -17 -3 -11 4 -14 3 -9 -5 5 -8 -1 -8
-24 -1 -33 12 -41 24 -10 16 21 -5 70 12 70 26 0 11 -38 8 -46 -4 -4 -8 -9 -7
-15 2 -6 10 -16 5 -41 -20 -32 -31 -32 -33 -14 -47 18 -12 15 -18 -6 -15 -4 0
-5 -6 -1 -14 4 -12 9 -13 19 -4 18 14 18 8 0 -26 -10 -18 -16 -22 -20 -13 -3
7 -4 1 -1 -13 3 -17 -1 -31 -10 -39 -8 -7 -15 -9 -15 -4 0 4 -5 3 -12 -4 -15
-15 -32 -16 -23 -2 3 6 2 10 -3 10 -6 0 -9 -11 -8 -24 1 -23 2 -23 19 -9 9 9
17 11 17 6 0 -6 -7 -16 -15 -23 -8 -7 -15 -19 -15 -26 0 -8 -3 -14 -7 -14 -5
0 -8 -27 -7 -60 1 -58 0 -60 -18 -44 -22 21 -23 28 -2 20 8 -3 13 -2 10 3 -7
11 -64 12 -72 0 -3 -6 -17 1 -30 14 -14 14 -38 30 -54 37 -17 7 -30 19 -30 27
0 9 -8 12 -27 9 -16 -2 -32 -5 -38 -5 -5 -1 5 -10 23 -21 49 -30 38 -32 -15
-3 -58 32 -65 38 -36 29 23 -7 23 -6 23 78 0 47 4 87 9 90 5 4 11 3 13 -2 1
-4 18 -18 37 -31 l33 -24 -23 -13 -24 -12 27 1 c14 1 24 5 21 10 -10 17 12 5
45 -24 35 -31 58 -26 32 6 -10 12 -10 15 1 15 7 0 -3 16 -22 36 -19 19 -26 32
-16 29 9 -4 17 -11 17 -15 0 -4 6 -10 13 -13 7 -3 13 6 14 25 1 17 -2 26 -8
23 -5 -4 -7 -11 -4 -16 10 -15 -5 -11 -41 12 -19 11 -31 25 -28 30 7 12 -14
39 -30 39 -6 0 -2 -7 8 -15 11 -8 17 -18 13 -21 -6 -7 -58 29 -91 61 -8 9 -28
23 -43 31 l-28 16 30 -6 c27 -6 28 -5 10 6 -11 6 -28 22 -39 35 -10 13 -21 22
-23 19 -3 -3 2 -13 11 -22 22 -22 13 -30 -11 -10 -10 9 -25 21 -34 28 -12 10
-15 24 -12 54 l5 41 56 -9 c32 -5 72 -6 90 -3 19 4 32 2 32 -5 0 -5 5 -10 10
-10 6 0 2 12 -7 27 l-18 27 33 -24 c18 -14 28 -26 23 -28 -21 -7 -11 -24 11
-19 15 4 31 -3 54 -22 18 -16 38 -31 46 -33 11 -4 11 -8 0 -20 -10 -13 -10
-16 0 -15 47 2 104 -26 83 -41 -17 -12 -35 -51 -35 -77 0 -18 -5 -24 -17 -22
-24 3 -33 -17 -9 -21 10 -2 23 2 27 10 6 8 12 9 17 3 4 -6 19 -11 33 -10 23 0
26 4 28 43 2 37 -1 44 -19 49 -13 4 -17 9 -12 17 11 13 12 46 1 46 -4 0 -9 7
-13 15 -4 12 -2 13 14 2 11 -6 20 -15 20 -19 0 -14 62 -40 72 -30 12 12 -20
52 -42 52 -12 1 -12 3 2 14 22 16 23 30 3 22 -12 -4 -14 0 -9 18 4 18 1 25
-15 29 -12 3 -21 10 -21 17 0 6 5 8 12 4 6 -4 18 2 26 12 13 18 14 18 8 -3 -8
-26 24 -48 58 -39 20 5 20 4 3 -9 -13 -9 -15 -15 -6 -20 6 -4 15 -1 20 6 13
21 24 1 24 -45 0 -40 2 -42 25 -37 14 2 19 6 13 8 -20 7 -15 27 12 53 21 19
25 21 25 7 0 -21 14 -22 30 -2 18 22 4 185 -16 185 -11 0 -14 -19 -15 -82 -1
-73 -2 -79 -11 -50 -8 24 -17 32 -34 32 -13 0 -24 4 -24 9 0 4 10 8 23 7 21
-1 22 3 25 81 3 78 2 82 -20 85 -21 3 -23 9 -26 72 -2 39 2 74 8 80 5 5 10 27
10 48 0 27 4 38 15 38 21 0 19 40 -2 56 -14 10 -15 16 -6 22 10 6 10 12 -2 28
-17 22 -20 54 -5 54 6 0 10 18 10 40 0 36 -2 40 -25 40 -26 0 -31 14 -15 40 8
12 10 12 16 -3 10 -28 26 -8 22 31 -2 22 2 37 10 39 8 3 10 -2 6 -14 -5 -16
-4 -16 12 2 l17 20 -7 -20 c-10 -27 -26 -113 -26 -137 0 -14 5 -18 15 -14 15
6 21 -15 8 -28 -4 -4 -8 -21 -9 -37 -2 -27 0 -28 11 -12 9 12 10 20 3 24 -6 4
-7 12 -4 18 5 8 12 6 23 -4 14 -14 14 -18 -3 -38 -19 -22 -19 -22 1 -5 20 16
23 16 58 1 20 -10 37 -24 37 -33 0 -9 6 -25 14 -36 12 -16 12 -22 1 -34 -15
-17 -35 -106 -26 -115 3 -4 6 -10 6 -13 0 -16 50 -112 59 -112 4 0 3 6 -3 14
-6 8 -11 18 -9 22 1 5 -6 24 -15 42 -26 47 -25 117 2 153 l22 30 -20 26 c-12
14 -21 32 -21 39 0 7 -10 16 -23 19 -102 31 -131 194 -51 285 12 14 27 42 34
62 6 21 27 51 48 68 20 16 33 30 30 30 -4 0 -23 -14 -43 -32 l-36 -31 -26 19
c-62 47 -86 172 -43 227 16 20 19 34 14 69 -4 34 0 53 20 92 14 27 22 54 19
59 -3 6 -1 7 5 3 17 -10 62 23 62 45 0 19 28 53 49 60 9 3 6 18 -8 49 -11 25
-21 66 -21 93 0 54 28 142 59 186 27 37 26 42 -4 37 -13 -3 -27 -1 -30 4 -3 5
3 7 14 5 11 -2 25 3 32 11 6 8 17 14 23 14 6 0 4 -4 -4 -10 -8 -5 -11 -12 -7
-16 4 -4 17 2 30 13 39 36 89 56 149 58 32 1 61 5 65 9 3 3 7 43 7 89 2 97 21
141 89 204 56 52 69 58 152 78 65 15 85 26 85 50 0 6 -5 3 -10 -5 -16 -26 -42
12 -48 68 -3 39 1 62 21 104 29 65 72 99 132 106 31 3 45 10 48 23 3 11 16 23
29 28 18 8 19 10 5 10 -10 1 -32 15 -49 31 -33 33 -32 20 -10 181 11 78 52
159 101 200 20 16 40 29 44 29 5 0 22 11 38 25 16 13 36 22 43 19 8 -3 24 4
35 15 12 12 27 21 34 21 10 0 12 16 9 64 -5 82 30 167 95 227 64 59 100 71
198 66 l83 -4 11 37 c22 75 86 124 174 136 57 8 130 -23 154 -64 15 -26 21
-29 58 -24 29 3 44 0 54 -11 11 -14 17 -10 49 25 20 23 55 49 77 59 47 22 132
25 160 5 29 -19 92 -29 100 -15 5 6 20 8 41 4 27 -5 34 -3 34 9 0 9 9 21 19
28 15 9 18 19 14 39 -9 47 57 133 87 114 24 -15 28 8 5 28 -19 16 -26 33 -27
63 -1 37 -5 42 -33 53 -49 17 -89 82 -94 150 -10 150 5 227 61 308 33 50 88
93 117 96 25 2 25 1 7 35 -41 79 -27 197 33 289 85 130 188 198 301 198 l65 0
1 51 c5 185 250 379 402 319 37 -15 42 -15 66 0 14 10 33 14 45 10 18 -5 19
-2 15 27 -10 70 62 148 137 148 21 0 40 4 43 8 3 5 -1 26 -9 48 -29 82 -11
185 50 273 19 28 35 60 35 71 l0 20 -2820 0 -2820 0 0 -3139z"/>
<path d="M5350 7031 c-23 -6 -71 -33 -96 -56 -12 -11 1 -53 21 -67 11 -9 -11
-28 -32 -28 -7 0 -13 -4 -13 -9 0 -5 -10 -7 -22 -4 -18 4 -17 1 6 -11 16 -9
34 -23 40 -32 10 -12 13 -10 23 15 11 29 10 30 -9 20 -11 -6 -22 -9 -24 -6 -7
7 19 24 49 31 20 5 27 3 27 -8 0 -8 -6 -16 -12 -19 -20 -7 -2 -19 30 -22 16
-1 34 -5 40 -9 7 -4 12 -2 12 3 0 6 -5 11 -12 11 -6 0 -9 2 -6 5 11 11 38 -8
38 -26 0 -10 7 -19 15 -19 17 0 39 -46 31 -64 -2 -6 -5 -2 -6 9 -1 19 -2 18
-10 -2 -7 -17 -17 -23 -37 -22 -15 0 -23 3 -16 5 16 7 5 34 -13 34 -8 0 -14 5
-14 11 0 6 -6 9 -14 6 -8 -3 -26 3 -39 14 -27 21 -42 25 -32 9 3 -5 2 -10 -2
-10 -5 0 -14 9 -21 20 -16 26 -81 52 -112 45 -19 -4 -21 -3 -10 5 27 18 3 11
-40 -12 -23 -12 -37 -24 -31 -26 5 -2 19 1 30 7 33 18 84 12 126 -14 l40 -24
-55 -2 -55 -1 45 -10 c66 -15 79 -20 58 -25 -10 -3 -18 -8 -18 -13 0 -11 41
-40 50 -35 4 2 6 -6 6 -18 -1 -15 -9 -24 -26 -28 -14 -4 -5 -5 20 -3 32 3 41
1 30 -6 -8 -5 -10 -10 -5 -10 6 0 16 4 23 9 11 6 10 10 -3 15 -24 9 -1 36 31
36 32 0 31 -23 -3 -50 -22 -17 -36 -20 -69 -15 -46 6 -70 -10 -40 -27 12 -7
14 -13 7 -21 -5 -7 -9 -16 -10 -21 0 -4 -11 -14 -24 -21 -22 -11 -25 -11 -22
4 6 36 -14 51 -58 46 -95 -11 -90 -13 -110 28 -13 27 -21 36 -30 29 -14 -10
-50 21 -39 34 4 4 2 4 -5 0 -6 -3 -15 0 -20 8 -12 20 -78 36 -153 36 -41 0
-72 6 -84 15 -26 20 -107 19 -132 -1 -18 -15 -18 -15 3 -5 32 16 106 13 129
-4 12 -9 42 -14 80 -15 111 0 214 -75 230 -169 3 -20 13 -46 20 -58 16 -26 12
-28 -19 -12 -12 6 -5 -3 16 -21 42 -36 67 -77 67 -112 0 -13 10 -32 21 -42 13
-11 20 -13 17 -4 -5 14 8 31 32 41 8 4 1 5 -16 3 -27 -4 -31 -2 -30 17 1 19 7
22 44 20 30 -1 42 2 42 12 0 17 -40 29 -75 23 -23 -5 -30 2 -26 25 0 4 -4 7
-10 7 -15 0 -38 31 -39 51 0 16 39 39 66 39 8 0 29 -7 46 -16 29 -15 34 -15
59 0 28 17 90 20 123 7 15 -6 28 1 56 30 19 21 48 41 63 44 32 9 97 -2 97 -15
0 -6 8 -10 18 -10 16 1 16 1 0 11 -22 13 -23 52 -2 70 11 9 14 23 11 46 -7 41
9 99 34 124 12 12 19 33 19 59 0 35 -4 42 -27 51 -50 18 -105 61 -91 70 10 7
8 9 -4 9 -10 0 -18 5 -18 10 0 6 -5 10 -11 10 -8 0 -8 -5 1 -15 15 -18 15 -18
-35 0 -43 15 -65 16 -105 6z"/>
<path d="M4888 6395 c-20 -7 -39 -11 -42 -8 -3 4 -6 -6 -6 -21 0 -28 0 -28 25
-12 13 9 32 16 42 16 13 -1 11 -5 -9 -16 -16 -8 -28 -17 -28 -21 0 -3 3 -4 6
0 4 3 19 0 35 -9 30 -15 40 -28 14 -18 -8 3 -20 2 -27 -2 -17 -10 -91 -5 -99
8 -3 5 -6 -5 -7 -22 l-1 -31 45 7 c36 5 49 3 65 -12 16 -14 24 -16 37 -7 9 6
16 18 16 27 -1 9 3 16 8 16 6 0 5 7 -2 15 -15 19 -14 20 27 28 24 5 31 3 27
-7 -3 -7 2 -16 12 -20 13 -5 15 -2 12 19 -3 14 -1 25 4 25 16 0 -2 19 -30 34
-43 21 -84 25 -124 11z"/>
<path d="M5556 6375 c-8 -43 -41 -92 -51 -75 -3 5 -16 15 -28 21 -22 11 -22
11 1 -10 12 -12 20 -26 17 -32 -8 -13 -45 -11 -45 2 0 6 9 8 23 4 21 -6 21 -5
2 6 -11 7 -22 15 -25 18 -3 3 -24 7 -47 8 -30 1 -43 -3 -43 -12 0 -7 -6 -15
-12 -18 -7 -2 -9 -8 -5 -13 4 -5 11 -3 15 3 4 7 27 15 51 19 33 5 42 4 37 -5
-4 -6 -2 -19 6 -28 8 -10 8 -14 1 -10 -6 4 -14 3 -18 -3 -3 -5 -18 -9 -33 -9
l-27 1 30 8 c18 4 -8 6 -63 5 -92 -2 -126 -11 -84 -22 13 -3 22 -13 22 -24 0
-23 8 -24 32 -2 17 15 20 15 48 -5 21 -16 38 -21 57 -17 26 5 27 5 5 -5 -13
-5 -34 -7 -46 -4 -12 3 -33 0 -46 -6 -23 -9 -22 -10 10 -5 32 5 33 4 10 -6
-72 -31 -109 -53 -114 -66 -5 -12 -9 -13 -20 -4 -10 9 -15 8 -20 -4 -3 -9 -2
-13 4 -10 6 3 10 1 10 -4 0 -6 -8 -11 -17 -11 -14 0 -15 -2 -5 -9 11 -7 10
-10 -3 -15 -23 -9 -117 -8 -112 2 3 4 -30 7 -72 7 -50 0 -84 5 -94 13 -10 8
-25 11 -38 7 -16 -5 -19 -4 -14 5 6 10 3 10 -11 2 -12 -7 -26 -7 -43 0 -33 13
-169 14 -199 2 -16 -7 5 -9 73 -6 91 4 99 3 160 -27 64 -32 125 -93 125 -125
0 -15 4 -14 38 3 20 11 43 29 49 40 24 38 72 55 158 55 79 0 137 -18 157 -48
15 -22 8 -62 -18 -100 -22 -32 -30 -37 -53 -32 -82 20 -165 35 -169 31 -3 -3
0 -5 7 -5 49 0 121 -70 121 -118 0 -20 -2 -20 -63 8 -34 17 -85 33 -112 37
l-50 6 33 -37 c41 -47 42 -67 5 -57 -16 4 -59 4 -98 1 -38 -4 -57 -8 -41 -8
45 -3 114 -40 133 -73 16 -27 19 -28 73 -22 73 7 121 -9 160 -53 30 -34 39
-77 20 -89 -5 -3 -10 -1 -10 5 0 6 -12 15 -27 21 -25 10 -26 12 -9 18 16 6 12
10 -22 24 -24 9 -57 17 -75 16 l-32 -1 30 -13 c18 -8 32 -9 36 -4 3 6 11 4 18
-4 9 -12 6 -17 -17 -26 -16 -7 -49 -13 -73 -13 -24 0 -39 -3 -32 -5 7 -2 10
-10 7 -18 -3 -7 0 -16 7 -21 8 -4 10 -3 5 4 -4 7 -3 12 2 12 16 0 21 -12 9
-25 -10 -11 -16 -9 -35 8 -13 12 -25 21 -28 20 -2 -2 -10 -3 -16 -3 -9 0 -8 4
2 10 13 8 12 10 -2 10 -10 0 -18 3 -18 8 0 4 -20 8 -45 10 -50 3 -61 -13 -16
-23 49 -11 119 -85 86 -91 -33 -6 -55 -19 -60 -35 -4 -11 -10 -17 -15 -14 -4
3 -10 -2 -14 -10 -3 -8 -13 -15 -23 -14 -16 0 -15 1 2 8 19 8 19 8 -3 15 -13
4 -28 3 -35 -2 -7 -5 -37 -13 -69 -16 -35 -5 -58 -13 -62 -22 -3 -8 -11 -14
-18 -14 -9 0 -8 3 2 10 8 5 11 10 5 10 -19 0 -38 -18 -31 -29 4 -5 -2 -16 -14
-23 -11 -7 -20 -20 -20 -28 -1 -13 -2 -13 -13 1 -7 9 -17 14 -24 12 -9 -3 -6
-11 7 -25 14 -15 17 -25 10 -37 -19 -32 -37 -51 -49 -51 -7 0 -10 -4 -7 -9 3
-5 -15 -12 -41 -16 -26 -4 -59 -15 -73 -25 -18 -13 -36 -16 -65 -12 -76 11
-217 4 -208 -10 2 -5 0 -8 -5 -8 -4 0 -27 -16 -49 -35 -22 -19 -43 -31 -47
-27 -4 3 -4 -2 0 -12 5 -14 4 -17 -4 -12 -7 4 -12 2 -12 -3 0 -18 9 -13 46 24
69 69 162 97 254 75 40 -10 50 -16 51 -33 l0 -22 9 22 c9 23 57 53 85 53 25 0
75 -29 75 -44 0 -7 -26 -21 -60 -31 -32 -10 -57 -22 -54 -27 3 -5 -3 -12 -15
-15 -24 -6 -28 -23 -5 -23 8 0 13 -4 9 -9 -6 -11 -45 -10 -45 1 0 11 -68 40
-82 35 -7 -3 -4 -6 7 -6 11 -1 34 -12 50 -26 25 -21 28 -26 15 -35 -13 -8 -13
-10 3 -10 9 0 17 -4 17 -10 0 -5 20 -10 44 -10 36 0 48 -5 65 -26 20 -26 22
-26 66 -14 50 14 60 10 60 -25 1 -14 -1 -22 -3 -20 -3 2 -21 -4 -41 -14 -32
-17 -41 -17 -73 -6 -21 7 -40 10 -43 7 -3 -4 -4 0 0 8 10 27 -49 43 -130 37
-74 -5 -115 -19 -115 -38 0 -6 4 -8 10 -4 5 3 21 3 35 -1 25 -6 25 -8 10 -23
-12 -12 -18 -13 -23 -4 -9 15 -44 11 -50 -5 -2 -7 -8 -10 -12 -7 -5 3 -4 19 2
35 5 16 8 35 5 42 -3 7 -6 3 -6 -9 -1 -12 -6 -25 -12 -28 -6 -4 -7 -19 -4 -36
4 -15 2 -36 -4 -46 -8 -15 -10 -13 -8 12 1 20 -2 29 -11 27 -9 -1 -10 3 -3 15
25 51 34 74 29 79 -3 3 -14 -12 -23 -33 -12 -27 -23 -38 -39 -38 -17 0 -21 5
-20 25 1 14 -1 17 -3 7 -4 -14 -36 -40 -53 -42 -3 0 -16 -8 -30 -18 -18 -13
-20 -17 -8 -17 9 0 20 5 23 10 3 6 11 10 17 10 6 0 3 -9 -7 -20 -13 -14 -25
-18 -39 -14 -17 6 -19 4 -9 -8 10 -11 9 -19 -2 -35 -8 -11 -12 -22 -10 -25 3
-2 -11 -20 -30 -38 -19 -19 -35 -30 -35 -26 0 5 -7 3 -16 -5 -10 -8 -47 -13
-105 -14 -58 0 -93 -5 -97 -12 -11 -18 -89 -43 -109 -36 -12 5 -14 3 -8 -7 6
-9 4 -12 -7 -8 -9 4 -15 0 -15 -8 0 -17 -3 -17 38 3 74 37 231 24 270 -23 20
-24 -2 -35 -77 -38 -73 -3 -132 -18 -174 -45 -14 -9 -40 -25 -57 -36 -27 -16
-31 -24 -26 -45 6 -23 5 -24 -12 -10 -17 14 -17 14 -7 -7 14 -25 6 -53 -14
-53 -17 0 -18 -12 -2 -28 9 -9 20 -6 46 10 20 12 51 25 71 29 32 6 33 7 8 8
-15 0 -42 -6 -58 -15 -39 -20 -45 -14 -25 24 44 86 187 144 273 111 25 -9 26
-11 10 -21 -10 -5 -25 -7 -34 -4 -13 5 -14 4 -3 -9 9 -11 17 -12 34 -3 21 11
21 11 2 -11 -15 -16 -22 -18 -33 -10 -9 8 -13 8 -13 1 0 -6 4 -13 9 -16 5 -4
4 -16 -2 -30 -7 -13 -16 -22 -20 -19 -5 3 -6 -5 -2 -18 7 -23 7 -23 -12 -6
-11 9 -28 17 -39 17 -16 0 -17 2 -4 10 18 12 2 12 -25 0 -15 -7 -16 -9 -4 -9
9 -1 33 -12 53 -26 20 -14 38 -25 40 -25 2 0 6 14 10 32 17 84 102 140 210
137 55 -2 68 1 98 24 19 15 42 27 52 27 9 0 19 7 22 15 4 8 12 15 20 15 9 0
14 12 14 34 0 18 7 53 15 77 16 45 69 109 90 109 7 0 20 10 31 21 59 66 184
62 260 -10 11 -10 39 -30 62 -45 30 -18 40 -31 35 -42 -5 -13 -2 -15 13 -10
23 7 49 -8 40 -22 -3 -6 0 -13 6 -16 7 -3 0 -3 -17 0 -16 3 -37 12 -46 20 -8
8 -29 14 -45 14 -17 0 -35 5 -40 10 -6 6 -18 8 -27 4 -25 -9 -21 -23 6 -17 16
3 18 2 7 -5 -8 -5 -36 -9 -63 -8 -34 1 -46 -2 -42 -11 2 -8 -4 -13 -15 -13
-11 0 -20 -3 -19 -7 4 -25 -16 -53 -36 -53 -20 0 -23 -4 -21 -34 2 -18 7 -39
11 -46 6 -10 2 -11 -19 -6 -16 4 -26 2 -26 -4 0 -6 5 -8 10 -5 15 9 11 -15 -8
-55 -21 -42 -85 -79 -110 -63 -11 6 -26 7 -41 2 -19 -8 -22 -15 -19 -39 3 -20
0 -30 -8 -30 -8 0 -11 6 -7 16 4 11 2 15 -6 13 -20 -7 -16 -23 10 -37 22 -11
19 -12 -26 -8 -66 6 -116 -8 -146 -40 l-24 -27 33 24 c28 20 46 24 110 25 47
0 91 6 112 16 44 20 163 30 213 19 36 -9 38 -8 44 19 6 34 28 55 66 64 15 3
27 13 27 21 0 9 11 21 25 27 18 8 25 19 25 40 0 72 99 168 173 168 22 0 26 6
32 47 18 123 117 210 250 220 l60 5 -3 49 c-7 93 75 197 187 240 46 17 71 20
139 16 l82 -5 0 659 -1 659 -23 0 c-14 0 -26 -6 -29 -12 -3 -8 -9 -3 -14 12
-10 23 -10 22 -17 -15z"/>
<path d="M4570 6314 c-25 -7 -36 -13 -25 -14 16 -1 13 -5 -12 -16 -50 -21 -88
1 -40 24 16 8 17 11 6 11 -24 1 -42 -25 -36 -51 4 -15 -1 -30 -15 -45 -16 -17
-22 -36 -22 -78 -1 -43 -4 -54 -15 -50 -11 4 -11 3 -2 -9 8 -9 10 -24 5 -38
-4 -13 -7 -27 -6 -32 2 -4 -3 -15 -10 -24 -11 -13 -11 -14 1 -8 24 15 8 -10
-36 -57 -23 -25 -39 -47 -36 -51 9 -8 -18 -37 -28 -30 -5 3 -8 2 -7 -3 1 -4
-4 -18 -11 -31 -9 -16 -16 -20 -24 -14 -9 8 -13 -8 -15 -60 -2 -39 -7 -79 -12
-89 -6 -10 -6 -20 -1 -23 10 -7 23 27 26 70 4 55 14 81 50 124 19 23 35 48 35
55 0 7 20 31 45 54 41 38 45 45 39 75 -3 21 0 44 9 62 10 19 12 36 6 52 -17
44 25 108 94 143 42 22 136 27 180 10 37 -15 39 -14 26 7 -7 11 -22 17 -38 16
-14 -1 -18 1 -8 3 18 4 18 5 0 18 -22 17 -62 17 -123 -1z"/>
<path d="M4895 5850 c-15 -16 -32 -27 -36 -24 -4 2 -11 -1 -15 -7 -4 -8 -3 -9
4 -5 17 10 14 -5 -4 -29 -15 -20 -15 -20 -30 -1 -19 26 -18 17 2 -23 12 -24
13 -36 5 -44 -6 -6 -11 -7 -11 -2 0 4 -9 0 -20 -10 -11 -10 -17 -22 -13 -28 4
-6 0 -8 -10 -4 -11 4 -14 2 -10 -9 4 -11 0 -15 -12 -12 -10 2 -20 -4 -22 -12
-4 -12 -3 -12 5 -2 7 11 10 9 15 -7 3 -12 1 -19 -4 -15 -5 3 -9 -1 -9 -9 0 -9
-10 -14 -27 -14 -50 0 -126 -14 -155 -29 -37 -19 -96 -72 -110 -98 -6 -12 8
-4 33 20 78 74 152 97 226 71 l42 -14 11 33 c6 19 27 47 47 63 28 23 36 38 39
71 5 50 26 95 67 138 17 17 29 32 26 32 -3 0 -18 -13 -34 -30z"/>
<path d="M4102 4896 c-7 -15 -12 -33 -12 -40 0 -13 -29 -26 -59 -26 -11 0 -11
3 0 17 12 15 12 16 -6 9 -11 -5 -31 -8 -45 -7 -19 1 -22 -1 -10 -9 36 -23
-107 -47 -163 -27 -20 7 -34 17 -30 20 3 4 2 7 -3 8 -34 3 -66 13 -116 39 -70
37 -85 39 -36 5 21 -14 42 -34 47 -44 10 -17 5 -19 -62 -23 -82 -6 -162 -38
-217 -89 -19 -18 -27 -29 -17 -26 22 8 22 0 -4 -43 -19 -31 -19 -33 -3 -20 17
14 18 14 5 -2 -7 -10 -28 -20 -47 -24 -23 -4 -43 -17 -58 -38 -65 -86 -75
-153 -37 -235 31 -64 23 -74 -59 -75 -33 0 -56 -2 -50 -4 15 -5 12 -19 -6 -26
-9 -4 -24 -1 -33 6 -13 10 -14 10 -4 -1 9 -10 9 -16 0 -26 -9 -10 -19 -9 -45
3 -28 14 -39 14 -80 3 -26 -8 -55 -14 -64 -15 -9 0 -15 -2 -13 -5 3 -2 -10
-17 -27 -33 l-33 -29 38 16 c41 17 82 12 97 -14 8 -12 11 -13 18 -3 5 7 26 16
47 19 27 4 50 18 74 44 38 39 89 59 152 59 34 0 36 2 31 28 -2 15 -10 32 -16
37 -38 31 -46 129 -16 190 26 53 58 83 98 91 33 7 46 -9 17 -20 -8 -3 -15 -11
-15 -17 0 -7 12 -2 26 12 18 17 24 32 22 55 -4 46 24 79 99 116 61 30 76 33
153 33 79 0 90 -2 131 -30 24 -16 51 -30 59 -31 8 0 27 -4 43 -8 17 -5 32 -4
41 4 8 6 28 12 45 12 17 1 31 4 31 8 0 6 14 25 51 68 6 8 22 12 35 9 20 -3 24
0 24 20 0 13 5 33 11 44 6 11 9 25 7 31 -2 6 -9 -2 -16 -16z"/>
<path d="M5550 4812 c-60 -23 -81 -36 -83 -53 -2 -8 -6 -19 -10 -26 -4 -6 -1
-13 5 -16 7 -3 -1 -5 -17 -4 -44 0 -75 -12 -75 -30 0 -11 7 -14 28 -9 21 5 23
4 10 -4 -9 -6 -15 -17 -12 -25 4 -8 3 -22 0 -31 -5 -13 -9 -14 -20 -5 -9 8
-16 8 -20 2 -3 -5 -42 -9 -85 -8 -46 1 -79 -2 -78 -8 1 -5 -8 -14 -20 -19 -13
-6 -25 -16 -27 -23 -3 -7 11 -4 37 8 45 20 161 26 172 9 3 -5 -3 -10 -13 -10
-11 0 -35 -7 -53 -15 -38 -16 -25 -18 38 -6 24 5 40 4 37 0 -3 -5 -17 -9 -31
-9 -23 0 -24 -2 -12 -17 13 -15 11 -16 -13 -9 -19 4 -28 2 -28 -6 0 -9 -3 -9
-12 0 -18 18 -32 14 -17 -5 13 -15 12 -15 -8 -5 -28 15 -40 15 -25 0 16 -16
15 -25 -2 -31 -11 -4 -13 -1 -9 11 3 9 -6 0 -21 -21 -14 -21 -26 -41 -26 -45
0 -4 5 0 11 8 8 11 10 12 7 1 -3 -10 -24 -14 -80 -15 -70 -1 -79 -3 -107 -30
-17 -17 -31 -37 -30 -45 0 -14 1 -14 6 -1 21 53 122 87 174 60 25 -14 24 -40
-2 -40 -11 0 -17 -4 -14 -10 3 -5 18 -10 33 -10 23 -1 25 -2 11 -13 -9 -7 -14
-18 -11 -26 3 -10 -2 -13 -20 -9 -13 2 -30 -1 -36 -9 -10 -10 -10 -13 0 -14
15 -2 -38 -16 -65 -18 -16 -1 -16 1 -2 32 14 28 14 30 0 13 -8 -11 -15 -23
-15 -27 0 -6 -43 -26 -120 -55 -31 -12 -32 -13 -9 -14 14 0 34 6 44 14 14 10
25 11 37 5 22 -12 23 -29 3 -29 -16 0 -80 -38 -106 -62 -17 -15 -93 -53 -127
-63 -16 -5 -30 -1 -42 10 -16 15 -24 15 -52 6 -18 -6 -42 -21 -55 -32 l-22
-22 -7 27 c-3 14 -20 37 -36 51 -34 29 -59 34 -36 8 9 -10 19 -29 23 -42 6
-20 4 -23 -10 -17 -12 4 -16 2 -12 -8 4 -10 -4 -13 -35 -12 -40 1 -41 0 -52
-38 -11 -40 -35 -61 -32 -29 0 10 -6 18 -14 19 -36 3 -40 5 -40 21 0 9 -3 13
-7 10 -3 -4 -16 1 -27 12 -12 10 -32 22 -46 25 l-25 7 26 -17 c45 -29 69 -75
68 -130 0 -27 -3 -43 -6 -36 -2 6 -9 9 -14 6 -6 -4 -6 -11 1 -19 8 -10 1 -12
-32 -9 -30 3 -39 1 -28 -6 9 -6 10 -10 3 -10 -6 0 -15 5 -18 10 -4 6 -11 8
-16 4 -16 -9 -47 33 -44 61 2 14 -2 26 -8 27 -7 1 15 4 48 8 l60 7 -56 1 c-36
1 -62 -3 -75 -13 -18 -15 -18 -15 0 -8 13 4 17 3 12 -5 -4 -7 -2 -12 4 -12 6
0 8 -5 5 -10 -4 -6 -12 -4 -21 5 -9 8 -20 15 -25 15 -6 0 -8 4 -5 8 2 4 -3 8
-12 8 -9 1 -30 4 -47 8 -28 6 -28 5 5 -10 36 -16 70 -42 70 -54 0 -3 -16 -4
-36 -2 -33 4 -35 3 -26 -15 6 -11 18 -25 26 -33 32 -25 19 -37 -31 -29 -73 12
-95 11 -87 -3 6 -10 4 -10 -7 0 -7 6 -22 12 -33 12 -15 0 -10 -7 22 -31 42
-31 57 -57 25 -45 -54 21 -151 28 -208 16 -45 -10 -55 -14 -40 -20 11 -4 22
-3 23 1 6 15 64 11 60 -3 -8 -25 -71 -59 -98 -54 -24 5 -24 5 -3 -6 l22 -11
-26 -33 c-14 -19 -22 -34 -18 -34 4 0 2 -7 -5 -15 -7 -8 -18 -15 -25 -15 -6 0
-31 -18 -54 -40 -23 -22 -63 -51 -89 -65 -26 -13 -43 -24 -38 -25 19 -1 129
65 143 86 7 12 26 27 41 33 15 6 34 24 44 40 23 41 60 63 116 68 26 2 57 10
70 16 19 9 33 8 70 -5 l46 -17 43 40 c23 21 60 47 80 55 21 9 56 25 78 35 53
23 166 49 218 49 23 0 61 7 84 15 25 9 102 17 191 21 138 5 155 4 220 -17 51
-16 69 -26 65 -37 -4 -10 -16 -12 -42 -8 -109 18 -123 18 -130 7 -5 -7 -49
-12 -122 -13 -63 -2 -104 -4 -91 -6 22 -3 32 -22 11 -22 -6 0 -9 -7 -5 -15 4
-12 -3 -15 -34 -15 -21 0 -41 4 -44 9 -10 16 -86 21 -154 11 -68 -11 -223 -71
-255 -98 -10 -9 -15 -22 -13 -29 3 -7 1 -15 -5 -18 -5 -4 -9 -3 -8 2 4 26 -5
23 -38 -12 -23 -24 -38 -50 -39 -69 -2 -17 0 -24 3 -16 8 22 55 70 68 70 19 0
51 40 38 48 -7 5 -6 12 5 22 14 13 15 12 9 -3 -3 -9 -2 -17 3 -17 6 0 10 4 10
8 0 14 90 59 154 77 97 28 201 9 264 -48 12 -11 22 -24 22 -28 0 -4 -37 -6
-82 -4 -56 2 -71 0 -48 -5 19 -4 28 -8 20 -9 -13 -1 -13 -2 0 -11 13 -8 13
-10 -1 -10 -9 0 -29 -6 -44 -14 -15 -8 -33 -13 -39 -12 -6 2 -8 1 -3 -1 13 -8
7 -33 -8 -33 -8 0 -15 -4 -15 -9 0 -6 -21 -13 -47 -17 -46 -7 -47 -8 -20 -16
43 -15 32 -23 -25 -20 -29 2 -64 -1 -78 -6 -20 -8 -14 -9 33 -10 33 0 68 -7
80 -15 13 -8 32 -17 42 -20 17 -4 16 -5 -4 -6 -20 -1 -21 -3 -11 -16 10 -12 9
-15 -7 -15 -10 0 -28 -7 -39 -15 -23 -18 -11 -20 16 -3 14 9 23 9 30 2 8 -8 7
-11 -2 -12 -7 -1 -27 -4 -44 -8 -23 -4 -33 -2 -37 10 -4 9 -1 16 5 16 7 0 3 7
-8 15 -10 8 -28 14 -39 14 l-20 0 20 -8 c16 -7 17 -9 5 -13 -8 -3 -4 -3 8 -1
15 2 21 0 17 -7 -3 -5 -18 -11 -33 -11 -24 -1 -23 -3 8 -9 l35 -7 -45 -3 c-42
-2 -43 -3 -15 -10 30 -8 30 -8 3 -9 -14 0 -35 -4 -45 -8 -16 -6 -16 -5 -4 10
17 22 13 21 -44 -3 -56 -24 -61 -25 -45 -4 12 13 10 14 -14 3 -19 -9 -23 -15
-14 -21 9 -5 5 -8 -12 -9 -19 -1 -21 -2 -6 -6 15 -4 16 -7 5 -15 -10 -7 -8 -8
9 -5 12 3 20 1 16 -4 -3 -5 -16 -9 -29 -9 -13 0 -27 -4 -30 -10 -3 -5 -1 -10
5 -10 23 0 -2 -20 -40 -31 -56 -17 -43 -22 19 -7 31 7 56 19 62 30 25 47 127
64 170 29 16 -13 21 -23 14 -29 -10 -10 -181 -65 -250 -81 -22 -5 -31 -9 -20
-10 20 -1 40 4 205 48 41 11 89 21 105 21 25 1 27 3 10 9 -11 5 -23 7 -26 5
-20 -11 0 34 21 48 28 20 111 18 135 -2 13 -10 15 -9 15 9 0 25 16 58 37 79
21 21 113 53 133 47 30 -9 70 12 70 38 0 31 27 67 51 67 12 0 19 7 19 20 0 30
51 97 87 115 17 8 59 18 92 21 59 7 61 8 61 35 0 17 9 35 23 46 19 15 22 27
22 83 0 76 22 122 75 158 18 12 41 35 51 51 36 60 161 90 234 55 53 -25 70
-49 57 -79 -6 -14 -20 -25 -29 -26 -14 0 -15 -2 -3 -6 8 -3 23 -14 34 -25 20
-18 20 -18 -9 -48 -30 -32 -46 -38 -41 -17 1 6 1 9 -1 5 -3 -5 -12 -8 -21 -8
-15 0 -15 -2 -2 -11 11 -8 3 -9 -32 -5 -50 6 -101 -10 -106 -33 -6 -31 8 -48
36 -43 l27 5 -29 -23 c-25 -21 -27 -25 -13 -35 9 -7 15 -21 12 -33 -3 -16 0
-19 12 -15 11 5 14 3 8 -6 -4 -7 -18 -11 -31 -8 -19 3 -22 1 -13 -9 8 -10 6
-13 -8 -12 -10 0 -38 -3 -63 -7 l-45 -8 20 24 20 24 -23 -19 c-12 -11 -20 -21
-17 -24 8 -8 -125 -62 -180 -73 -58 -11 -128 -56 -121 -76 4 -8 1 -11 -5 -8
-10 7 -29 -12 -50 -50 -8 -14 -2 -11 19 9 27 25 41 30 106 34 64 4 77 2 82
-12 12 -31 34 -18 34 21 0 30 8 44 46 80 51 50 74 60 130 63 95 5 101 -11 13
-36 -67 -19 -130 -72 -170 -144 -21 -38 -24 -39 -45 -26 -20 14 -24 13 -45
-12 l-24 -27 28 24 c15 14 27 20 27 14 0 -6 -7 -16 -15 -23 -8 -7 -13 -15 -11
-19 3 -4 1 -13 -4 -21 -7 -12 -11 -12 -27 0 -16 13 -16 12 1 -8 11 -13 14 -22
7 -22 -6 0 -20 -20 -31 -45 -19 -45 -43 -63 -33 -25 3 11 8 18 12 16 3 -2 6 7
6 20 0 13 -3 24 -7 24 -5 0 -8 -9 -8 -19 0 -11 -7 -27 -16 -35 -8 -9 -12 -20
-9 -26 3 -5 1 -10 -4 -10 -6 0 -11 9 -11 20 0 11 5 20 12 20 6 0 9 2 6 5 -3 3
-13 2 -22 -1 -12 -5 -16 -14 -13 -31 4 -20 1 -24 -14 -20 -10 3 -17 2 -16 -2
1 -3 -2 -8 -8 -10 -5 -3 -27 -21 -49 -40 -21 -20 -42 -35 -47 -33 -5 1 -8 -1
-7 -5 3 -18 -15 -41 -28 -36 -13 5 -36 -34 -28 -48 2 -4 -2 -6 -9 -5 -6 0 -46
-16 -87 -36 -70 -35 -229 -109 -240 -113 -3 -1 -18 -7 -35 -14 -16 -7 -37 -14
-45 -16 -8 -2 -96 -30 -195 -63 -99 -33 -197 -64 -218 -67 -27 -5 -35 -10 -25
-16 10 -7 10 -9 -2 -9 -13 0 -13 -1 0 -10 12 -8 11 -10 -5 -10 -12 0 -25 -4
-30 -9 -6 -5 -26 -12 -45 -14 -19 -2 -6 -3 29 0 35 2 71 8 80 13 10 5 22 5 29
1 6 -4 -16 -13 -51 -20 -79 -16 -87 -19 -59 -20 36 -1 244 46 414 94 155 44
192 53 153 34 -15 -7 -10 -8 20 -5 33 4 27 1 -30 -19 -38 -13 -78 -24 -87 -24
-10 -1 -18 -6 -18 -12 0 -7 -10 -9 -26 -5 -15 4 -23 3 -20 -3 3 -5 -1 -12 -10
-15 -24 -9 -31 -7 -14 4 11 8 7 9 -15 4 -43 -9 -68 -26 -30 -19 29 5 28 5 -5
-9 -42 -17 -60 -20 -40 -5 12 9 12 10 -3 5 -10 -3 -24 -6 -30 -6 -7 0 -6 -5 3
-11 12 -8 11 -9 -7 -4 -29 8 -124 -16 -98 -25 15 -5 8 -11 -32 -24 -29 -10
-62 -25 -75 -35 -24 -19 -67 -36 -80 -33 -5 1 -8 -5 -8 -14 0 -8 -4 -13 -9 -9
-5 3 -12 1 -15 -4 -14 -22 13 -19 45 5 29 22 42 25 87 21 29 -2 47 0 40 4 -7
4 -9 11 -5 15 8 8 120 50 180 67 20 6 37 15 37 19 0 4 5 8 10 8 6 0 10 -4 10
-10 0 -5 -20 -15 -45 -21 -49 -12 -75 -34 -28 -24 15 4 35 9 43 12 44 14 115
20 131 10 13 -8 40 -8 96 0 43 6 80 9 82 7 3 -2 -5 -18 -17 -34 -12 -16 -22
-33 -22 -37 0 -4 5 -1 10 7 7 12 10 8 10 -15 0 -16 3 -39 6 -50 4 -16 -6 -27
-45 -53 -27 -17 -62 -32 -77 -32 -42 0 -183 -30 -249 -52 -33 -12 -88 -22
-122 -24 -34 -1 -70 -7 -81 -13 -11 -6 -23 -7 -27 -3 -3 4 -5 1 -3 -6 3 -13
-66 -44 -76 -35 -3 3 -12 -2 -21 -10 -9 -9 -32 -19 -53 -22 -20 -3 -45 -10
-55 -16 -13 -7 -22 -5 -33 6 -25 24 -62 18 -120 -21 -45 -30 -61 -35 -90 -31
-23 4 -32 2 -28 -5 13 -20 93 -2 134 31 22 18 50 31 66 31 34 0 21 -17 -16
-22 -14 -2 -25 -10 -25 -18 0 -8 -7 -15 -16 -14 -8 1 -20 -5 -27 -12 -10 -11
-9 -14 5 -15 21 -2 -43 -14 -149 -29 -72 -10 -191 -34 -297 -60 -24 -6 -50 -9
-58 -6 -7 3 -13 1 -13 -4 0 -4 -33 -11 -72 -13 -40 -3 -90 -8 -111 -11 -24 -3
-35 -2 -32 5 4 5 15 7 26 4 10 -4 27 -1 36 5 15 8 12 9 -11 4 -21 -5 -27 -4
-22 5 4 6 22 12 39 12 31 2 31 2 4 6 -20 3 -53 -8 -106 -36 -43 -22 -80 -39
-82 -37 -2 2 -17 6 -34 10 l-30 7 34 -23 c30 -19 32 -23 15 -29 -10 -3 12 -7
49 -8 47 0 78 5 100 16 40 21 43 22 147 34 258 29 385 50 461 77 66 24 117 34
121 23 2 -4 44 -4 93 0 83 7 116 16 244 64 33 12 61 15 105 10 99 -10 448 69
505 114 83 67 169 101 255 101 28 0 80 9 114 20 35 11 89 20 120 20 l57 -1
-75 -24 c-41 -14 -120 -37 -175 -51 -55 -15 -104 -31 -110 -36 -7 -7 -3 -8 10
-5 11 3 62 13 114 22 52 8 128 24 169 35 81 21 122 25 122 11 0 -9 -94 -51
-114 -51 -6 0 -16 -10 -21 -22 -6 -12 -18 -23 -28 -24 -10 -1 -26 -6 -35 -10
-9 -4 -25 -6 -36 -5 -11 2 -16 -2 -11 -9 5 -7 -2 -9 -21 -4 -18 5 -25 3 -20
-4 3 -6 -3 -12 -16 -14 -16 -2 -23 -10 -24 -27 -2 -27 -21 -41 -84 -58 -68
-19 -103 -16 -160 14 -73 38 -165 36 -325 -6 -121 -33 -147 -38 -198 -40 -16
-1 -26 -5 -22 -11 3 -6 -4 -10 -17 -11 -13 0 -17 -3 -10 -6 7 -3 36 1 65 8 29
7 61 13 72 15 11 1 34 5 50 9 26 6 24 3 -20 -28 -27 -19 -53 -33 -57 -31 -4 3
-9 0 -13 -6 -4 -6 -11 -8 -16 -5 -5 4 -9 1 -9 -4 0 -6 -5 -11 -11 -11 -5 0 -7
6 -3 13 5 9 4 9 -6 0 -7 -6 -19 -9 -26 -6 -8 3 -14 1 -14 -3 0 -5 -18 -10 -39
-11 -22 -1 -73 -10 -113 -19 -40 -8 -78 -16 -85 -17 -7 0 -10 -4 -7 -8 3 -5
-7 -26 -21 -48 -33 -53 -32 -63 2 -22 49 59 134 90 201 72 63 -17 126 -76 70
-66 -22 5 -113 -36 -133 -58 -6 -7 -17 -13 -25 -15 -35 -8 -83 -37 -97 -59 -9
-13 -31 -32 -49 -41 -30 -16 -94 -85 -94 -102 0 -4 -9 -10 -21 -13 -29 -8 -34
16 -15 67 19 49 48 80 90 96 16 6 26 13 23 17 -3 3 -25 -2 -49 -12 -53 -21
-110 -21 -140 -1 -34 24 -61 20 -117 -19 -28 -19 -59 -35 -70 -35 -21 0 -31
-18 -31 -56 0 -24 -23 -34 -35 -14 -4 6 -17 4 -36 -6 -17 -8 -36 -13 -42 -11
-7 2 -20 0 -29 -5 -14 -6 -16 -5 -12 7 4 8 10 15 15 15 5 0 9 10 9 23 0 12 7
34 14 50 8 15 12 27 9 27 -9 0 -43 -42 -58 -71 -7 -14 -25 -34 -39 -44 -14
-11 -26 -27 -26 -36 0 -25 -27 -42 -58 -36 -22 4 -35 -2 -67 -32 -53 -51 -69
-79 -55 -96 12 -15 -14 -25 -70 -25 -52 0 -131 -42 -173 -90 -20 -24 -37 -48
-37 -54 0 -9 -132 -46 -162 -46 -19 0 -6 38 15 44 12 3 27 18 33 33 13 36 64
46 64 13 0 -36 19 -21 22 18 3 33 8 39 48 59 25 11 56 34 70 50 26 31 75 53
116 53 17 0 24 6 24 19 0 10 11 30 25 45 19 21 32 26 53 23 26 -4 28 -2 24 19
-5 30 13 53 56 71 27 11 45 33 26 33 -27 0 -75 -37 -85 -65 -9 -24 -21 -36
-43 -42 -18 -5 -40 -22 -51 -40 -26 -41 -75 -61 -92 -37 -8 11 -9 24 -2 43 8
23 8 24 -5 8 -12 -16 -17 -16 -56 -2 -23 8 -57 14 -74 14 -24 -1 -20 -3 17 -9
53 -9 97 -33 97 -53 0 -14 -83 -54 -131 -64 -15 -3 -39 -18 -53 -34 -14 -15
-48 -38 -76 -50 -27 -12 -50 -24 -50 -28 -1 -3 -11 -18 -23 -34 -23 -27 -24
-27 -63 -14 -57 21 -136 31 -143 19 -4 -7 -19 -7 -41 -2 -27 6 -29 8 -11 9 34
1 22 10 -22 15 -25 4 -36 1 -34 -7 1 -7 -11 -13 -28 -15 -33 -3 -150 -56 -160
-72 -13 -22 -43 -10 -50 20 l-6 29 -47 -32 c-55 -38 -101 -54 -160 -56 -32 -1
-54 -11 -87 -36 -48 -36 -126 -56 -154 -38 -9 6 -40 16 -69 24 -63 16 -94 4
-122 -46 -13 -24 -29 -33 -81 -47 -38 -10 -69 -26 -77 -37 -11 -16 -21 -19
-67 -14 -29 3 -76 0 -104 -7 -54 -13 -73 -8 -53 12 34 34 -15 38 -73 5 -22
-12 -60 -29 -85 -36 -25 -7 -52 -16 -60 -19 -8 -3 -24 -4 -35 -3 -17 2 -18 0
-5 -9 13 -9 12 -10 -5 -7 -11 2 -36 -4 -55 -14 -44 -21 -150 -36 -150 -21 0 6
5 14 12 18 7 5 4 10 -11 16 -13 4 -25 17 -28 28 -8 29 -23 24 -30 -10 -3 -17
-10 -33 -14 -36 -5 -3 -9 -104 -9 -225 0 -216 0 -219 21 -219 20 0 184 -24
729 -106 395 -60 1631 -266 1665 -278 16 -6 -46 -28 -80 -28 -16 -1 -68 4
-115 11 -166 24 -200 28 -200 20 0 -5 -11 -4 -24 1 -27 10 -86 11 -101 1 -5
-3 -30 -11 -55 -18 -38 -10 -39 -12 -10 -8 19 2 29 1 22 -2 -6 -2 -10 -8 -8
-12 3 -4 -11 -5 -31 -3 -24 3 -34 1 -29 -6 5 -8 -2 -8 -24 -1 l-30 11 23 19
c12 10 16 18 10 19 -7 0 -13 -3 -13 -7 0 -5 -14 -8 -30 -9 -17 -1 -30 3 -30 9
0 5 -7 4 -15 -3 -8 -7 -13 -16 -10 -20 8 -13 -18 -18 -43 -9 -16 6 -21 6 -16
-2 4 -8 1 -8 -12 -1 -28 14 -96 20 -119 11 -19 -7 -18 -8 3 -8 22 -1 59 -27
51 -36 -3 -2 -39 1 -82 6 -85 11 -105 6 -85 -19 10 -12 10 -14 0 -8 -7 4 -15
1 -18 -9 -5 -13 -21 -16 -95 -14 -49 2 -89 6 -89 11 0 4 5 8 11 8 8 0 8 4 -1
15 -6 8 -24 14 -38 14 -114 0 -174 4 -147 10 l30 7 -35 8 c-106 22 -121 28
-114 50 3 11 14 28 25 38 24 20 25 40 2 36 -12 -2 -18 3 -18 17 0 11 -4 26 -8
33 -12 18 -37 15 -37 -5 -1 -17 -1 -17 -11 0 -5 9 -16 17 -24 17 -11 0 -12 -6
-5 -25 8 -20 6 -27 -10 -35 -20 -11 -24 -51 -4 -43 6 2 18 -3 27 -11 18 -19
31 -21 21 -4 -4 6 -3 8 3 5 5 -4 10 -20 11 -37 0 -19 -3 -28 -10 -24 -7 4 -8
2 -4 -4 4 -6 14 -8 24 -5 16 6 16 6 0 -10 -20 -20 -39 -22 -56 -5 -9 9 -12 8
-12 -5 0 -14 10 -17 50 -17 38 0 50 4 50 15 0 8 4 15 8 15 4 0 8 -9 8 -20 0
-18 -7 -20 -58 -20 -51 0 -60 3 -68 23 -5 13 -9 16 -10 7 0 -13 -1 -13 -10 0
-8 13 -10 13 -10 1 0 -11 -4 -10 -14 4 -8 11 -13 24 -12 30 2 5 1 7 -1 3 -3
-5 -16 -8 -29 -8 -17 0 -24 6 -24 19 0 14 6 17 25 13 35 -6 31 9 -9 36 -24 16
-42 22 -57 17 -13 -4 -19 -3 -15 3 3 5 0 10 -7 9 -30 -1 -48 4 -43 12 6 9 -37
31 -57 30 -7 0 -3 -4 8 -9 19 -8 19 -9 -2 -9 -12 -1 -29 9 -38 22 -12 18 -17
19 -24 8 -6 -9 -16 -11 -27 -6 -30 12 -84 15 -84 4 0 -9 44 -32 65 -34 6 0 47
-11 93 -24 73 -21 82 -26 82 -47 0 -13 -4 -24 -10 -24 -5 0 -7 -7 -4 -15 5
-11 2 -13 -10 -9 -11 4 -15 14 -11 28 2 11 2 15 -1 9 -9 -19 -20 -16 -38 12
-9 14 -12 25 -6 25 6 0 15 -10 20 -22 7 -18 9 -19 9 -5 1 9 7 17 14 18 6 0 1
5 -12 10 -32 13 -43 8 -48 -22 -2 -19 -1 -21 7 -9 8 13 10 13 10 -2 0 -25 -17
-31 -29 -11 -6 10 -11 12 -11 6 0 -7 -4 -13 -10 -13 -5 0 -7 7 -4 15 4 8 1 15
-5 15 -6 0 -11 -4 -11 -9 0 -12 -24 -8 -42 7 -8 6 -18 9 -21 5 -4 -3 -13 -1
-20 5 -8 7 -17 9 -20 5 -4 -3 -7 7 -8 23 l0 29 -11 -25 c-11 -25 -11 -25 -20
12 -6 21 -14 38 -20 38 -5 0 -7 -4 -4 -9 3 -5 -3 -11 -14 -14 -11 -3 -20 -1
-20 4 0 5 5 9 11 9 5 0 8 4 4 9 -3 5 2 17 11 25 9 10 11 16 4 16 -6 0 -10 6
-8 12 3 7 -13 21 -35 30 -38 18 -39 18 -58 -5 -13 -15 -18 -34 -16 -59 3 -43
-9 -41 -18 3 -6 27 -10 30 -32 24 l-25 -6 22 35 c23 38 18 74 -7 41 -12 -18
-13 -18 -13 1 0 32 -12 36 -29 12 l-15 -22 -7 24 c-4 14 -7 -66 -8 -177 l-1
-203 2820 0 2820 0 0 634 c0 498 -3 635 -12 639 -10 4 -10 6 0 6 18 1 15 42
-5 57 -16 12 -16 13 -2 14 14 0 17 11 18 57 0 35 -4 60 -12 65 -9 6 -9 8 1 8
10 0 12 181 12 890 l0 890 -50 0 c-38 0 -50 -4 -50 -15 0 -11 -11 -15 -40 -15
-22 0 -40 -5 -40 -11 0 -5 5 -7 12 -3 7 4 8 3 4 -5 -4 -7 -13 -10 -19 -8 -6 2
-22 -9 -35 -25 -13 -15 -28 -26 -32 -23 -5 3 -12 0 -16 -6 -4 -8 -3 -9 4 -5 7
4 12 1 12 -6 -1 -16 -30 -56 -30 -41 0 6 -9 9 -20 6 -11 -3 -20 -9 -20 -14 0
-5 8 -6 18 -3 10 3 5 -5 -13 -21 -16 -15 -23 -24 -15 -20 8 3 4 -3 -9 -14 -22
-20 -26 -20 -47 -6 -13 9 -24 11 -24 6 0 -6 8 -14 17 -20 24 -13 -58 -25 -112
-16 -22 4 -57 9 -77 12 -23 3 -35 9 -31 16 4 6 -2 8 -15 5 -12 -3 -45 -1 -74
6 l-53 11 32 29 32 28 -35 33 c-31 29 -34 37 -34 89 0 66 24 121 70 160 17 14
35 26 40 26 4 0 11 11 14 24 3 13 29 49 56 80 53 57 102 82 146 73 14 -2 41 4
62 14 20 11 53 19 73 19 31 0 38 4 43 26 7 24 61 58 78 48 5 -3 8 16 8 43 0
69 37 140 101 196 29 26 57 47 61 47 5 0 8 141 8 314 0 242 -3 315 -12 319
-10 4 -10 6 0 6 7 1 12 14 12 31 0 22 -5 30 -17 31 -15 0 -15 2 2 9 16 7 14 9
-15 9 -26 1 -31 -2 -20 -9 13 -8 12 -10 -2 -10 -10 0 -18 5 -18 10 0 6 -7 10
-15 10 -8 0 -15 5 -15 10 0 6 12 8 28 5 l27 -6 -24 14 -24 14 22 22 c11 11 27
21 34 22 6 0 3 4 -8 9 -17 7 -15 9 13 9 21 1 32 6 32 16 0 20 -33 19 -90 -3z
m-705 -832 c-3 -5 -12 -10 -19 -10 -8 0 -24 -9 -37 -21 -17 -15 -19 -19 -6
-15 9 3 17 3 17 1 0 -8 -45 -46 -65 -56 l-20 -10 20 17 c19 16 19 16 -10 10
-16 -4 -48 -11 -70 -17 -91 -22 -114 -23 -121 -4 -9 23 5 44 46 73 28 18 42
21 77 16 31 -4 43 -3 43 6 0 9 13 11 48 7 26 -3 56 -2 67 3 28 12 37 12 30 0z
m63 -956 c88 -29 142 -68 146 -105 1 -13 7 -33 13 -44 6 -11 13 -37 14 -58 3
-30 -1 -42 -16 -53 -17 -13 -21 -13 -32 2 -7 9 -10 21 -6 27 3 6 1 7 -4 4 -6
-4 -18 2 -28 13 -38 42 -164 45 -219 4 -29 -21 -11 -29 26 -11 32 15 64 20
103 18 12 -1 -14 -19 -65 -47 -103 -55 -110 -62 -120 -111 -25 -116 -35 -137
-67 -144 -17 -3 -46 -15 -64 -26 -19 -11 -55 -26 -82 -33 -26 -7 -50 -17 -53
-21 -8 -14 -44 -10 -50 5 -5 14 -62 15 -83 2 -5 -3 -12 9 -15 27 -18 85 -18
105 3 144 22 43 74 93 97 93 9 0 14 11 14 35 0 40 22 100 48 128 40 44 181
143 227 159 70 24 121 22 213 -8z m296 -509 c8 -23 -4 -45 -30 -55 -23 -9 -54
-47 -58 -72 -4 -32 -35 -53 -91 -64 -11 -2 -24 -11 -30 -21 -5 -9 -35 -41 -65
-70 -70 -67 -183 -123 -248 -123 -26 -1 -64 -7 -84 -14 -32 -11 -39 -11 -49 1
-15 18 7 63 30 63 9 0 24 13 33 29 27 48 90 74 175 73 l73 -1 0 33 c0 58 68
106 149 106 32 0 39 3 35 15 -10 25 42 93 78 104 49 14 75 13 82 -4z m-909
-354 l60 -28 3 -72 c2 -39 1 -71 -2 -71 -4 0 -25 13 -47 30 -41 29 -96 46
-121 37 -8 -3 0 -10 17 -16 18 -7 31 -19 32 -30 1 -16 -9 -19 -80 -24 -46 -3
-97 -13 -117 -23 -40 -20 -95 -76 -112 -116 -8 -16 -30 -34 -60 -48 -27 -12
-60 -37 -74 -55 -19 -25 -36 -35 -67 -40 -84 -14 -163 -72 -206 -152 -7 -13
-21 -23 -34 -23 -12 0 -43 -8 -69 -17 -45 -16 -50 -16 -83 0 -32 15 -39 16
-65 2 -34 -17 -60 -19 -60 -5 0 18 63 49 110 55 25 3 60 13 78 21 18 7 42 14
52 14 13 0 20 7 20 18 0 23 25 47 62 61 18 7 26 15 22 25 -8 20 22 73 52 92
15 11 46 17 79 17 47 0 55 3 55 19 0 11 13 26 30 36 24 14 30 24 30 50 0 50
26 97 83 148 131 118 289 154 412 95z m-1027 -478 c18 -25 15 -33 -15 -33
l-27 0 23 -21 c17 -16 20 -24 10 -35 -6 -8 -20 -14 -30 -14 -33 0 -128 -41
-142 -61 -15 -20 -114 -59 -134 -52 -7 3 -13 12 -13 20 0 9 -6 13 -14 10 -8
-3 -17 -1 -19 6 -3 9 -9 8 -23 -3 -10 -8 -6 0 10 18 17 18 31 32 33 32 2 0 8
-11 13 -25 12 -31 20 -31 49 -3 13 11 37 24 55 28 17 4 30 12 29 18 -2 6 12
23 30 38 17 15 31 32 29 37 -4 13 28 47 53 58 26 11 67 2 83 -18z m1039 -267
c39 -19 73 -38 76 -44 4 -5 -16 -10 -47 -11 -93 -3 -159 -31 -176 -76 -5 -13
-19 -25 -32 -27 l-23 -5 25 -10 c22 -9 26 -8 32 16 13 49 50 72 130 83 53 8
81 7 103 -1 23 -10 26 -14 15 -21 -8 -6 -10 -10 -5 -10 6 0 4 -4 -4 -9 -12 -8
-13 -15 -4 -34 11 -23 10 -24 -41 -25 -75 -3 -105 -11 -116 -32 -15 -29 -12
-32 10 -10 27 27 110 28 134 1 13 -15 14 -20 4 -24 -10 -4 -9 -9 5 -17 23 -15
22 -30 -3 -30 -11 0 -20 3 -20 8 0 4 -11 8 -25 8 -22 2 -23 -1 -14 -18 9 -17
8 -19 -9 -14 -11 4 -36 -1 -55 -10 -34 -16 -36 -16 -65 5 -39 28 -78 27 -105
-2 -32 -34 -60 -47 -104 -47 -39 0 -83 -22 -83 -42 0 -6 10 -2 23 9 13 13 41
23 72 27 83 8 125 18 131 28 4 6 -2 7 -16 3 -20 -6 -21 -5 -11 14 7 12 22 21
35 21 30 0 39 -10 20 -24 -21 -16 103 -14 132 2 18 10 23 8 35 -15 9 -16 10
-28 4 -30 -38 -13 -40 -23 -12 -48 l28 -25 -27 0 c-26 0 -27 -1 -9 -14 18 -13
18 -14 -5 -37 -17 -18 -21 -19 -17 -6 6 15 3 16 -13 7 -27 -14 -34 -12 -20 5
11 14 10 14 -15 5 -20 -7 -30 -8 -35 0 -9 15 -92 4 -106 -15 -7 -9 -15 -16
-18 -16 -19 2 -25 -3 -41 -39 -10 -22 -22 -41 -27 -41 -4 -1 -14 -2 -20 -3 -7
-1 -12 -10 -10 -19 4 -25 -16 -47 -43 -47 -12 0 -30 -9 -40 -20 -24 -26 -29
-25 -65 10 -35 34 -49 31 -85 -16 -34 -44 -73 -46 -117 -4 -38 37 -80 40 -102
8 -18 -25 -14 -28 -81 60 -50 67 -53 67 -83 15 -18 -33 -78 -103 -87 -103 -3
0 -16 12 -28 26 -16 19 -36 27 -69 31 -70 8 -92 -1 -113 -47 l-18 -40 -71 6
c-40 4 -67 3 -63 -2 15 -15 202 -72 212 -64 6 4 37 10 70 13 33 3 119 12 190
21 72 8 174 17 229 21 l99 6 -24 -30 c-27 -34 -70 -40 -156 -20 -41 10 -54 9
-81 -5 -17 -9 -44 -16 -59 -17 -20 -1 -14 -4 22 -13 l50 -12 -42 -22 c-24 -12
-43 -27 -43 -32 0 -6 -9 -10 -21 -10 -11 0 -17 5 -14 10 3 6 -4 10 -16 10 -35
0 -142 52 -127 61 8 5 -5 9 -32 8 l-45 0 65 -34 c75 -40 67 -39 -110 1 -58 13
-119 25 -135 27 -17 2 -37 7 -44 11 -10 7 -11 3 -6 -14 5 -15 4 -20 -4 -16 -6
4 -11 17 -11 28 0 11 -7 26 -17 33 -20 15 -9 35 20 36 17 1 18 2 5 6 -12 3
-18 14 -18 32 0 24 -31 123 -50 161 -4 8 -10 27 -14 43 -6 24 -4 27 19 27 14
0 25 6 26 13 0 8 2 8 5 1 6 -13 44 -7 44 7 0 5 7 9 15 9 30 0 95 33 95 48 0
23 76 90 107 94 24 3 19 7 -29 22 -32 9 -58 22 -58 27 0 5 -29 9 -65 9 -64 0
-87 13 -42 23 12 3 78 13 147 22 69 9 284 40 478 70 195 30 371 55 392 55 21
0 43 6 50 15 17 21 76 56 119 71 61 22 111 17 188 -20z m1020 -22 c27 -7 55
-74 31 -74 -6 0 -8 -8 -5 -17 12 -44 12 -48 -5 -45 -12 2 -18 -8 -23 -40 -7
-39 -9 -41 -18 -20 -5 12 -14 22 -19 22 -5 0 -6 5 -2 12 5 8 2 9 -11 4 -18 -7
-18 -6 0 14 18 19 18 20 -1 21 -11 0 -13 3 -6 6 22 9 14 31 -10 26 -22 -4 -22
-3 2 11 l25 15 -28 1 c-25 0 -26 2 -15 20 11 17 10 22 -1 29 -11 7 -9 10 10
14 38 7 52 7 76 1z m-307 -19 c0 -10 10 -15 34 -15 27 0 39 -7 55 -29 27 -37
26 -39 -5 -33 -24 4 -25 3 -15 -16 8 -16 7 -21 -5 -26 -9 -3 -15 -16 -14 -28
3 -39 1 -45 -20 -51 -11 -3 -20 -11 -20 -19 0 -10 3 -10 11 2 9 13 10 13 6 -1
-3 -9 -1 -22 4 -28 5 -6 6 -9 2 -6 -3 3 -18 -2 -32 -11 l-26 -15 24 20 c23 20
18 25 -19 22 -12 -1 -12 0 2 9 20 13 22 79 2 87 -12 4 -11 8 3 19 17 12 16 13
-7 14 -22 0 -26 4 -25 33 0 17 -2 37 -6 42 -22 36 -18 45 16 45 24 0 35 -5 35
-15z m-120 -20 l25 -15 -22 -6 c-18 -5 -21 -11 -16 -36 5 -27 4 -29 -19 -23
-21 5 -24 3 -23 -19 0 -13 3 -28 7 -32 12 -11 -1 -24 -18 -17 -13 5 -15 1 -9
-17 5 -15 4 -20 -4 -16 -6 4 -11 2 -11 -3 0 -6 5 -11 12 -11 6 0 8 -3 5 -6 -4
-4 -13 -2 -20 4 -8 7 -17 9 -20 5 -4 -3 -7 8 -7 26 0 22 -4 30 -12 25 -8 -5
-9 -2 -5 9 4 11 1 17 -8 17 -10 0 -15 11 -15 35 0 43 -15 46 -23 5 -4 -16 -11
-30 -17 -30 -6 0 -9 3 -6 8 2 4 -14 6 -37 5 -39 -2 -40 -2 -13 7 16 5 43 23
60 39 58 57 143 76 196 46z m-2295 -417 c6 0 48 3 94 7 l83 8 -8 -24 c-4 -13
-8 -32 -9 -41 -1 -10 -4 -21 -8 -24 -4 -4 -7 -16 -7 -26 0 -12 -4 -16 -12 -12
-6 4 -8 3 -5 -4 4 -5 3 -21 -2 -34 -6 -12 -10 -17 -10 -10 -1 6 -6 12 -12 12
-6 0 -8 -7 -5 -16 5 -14 4 -15 -9 -4 -9 7 -14 19 -11 26 3 7 0 11 -7 9 -13 -5
-47 56 -47 85 0 10 -4 22 -10 25 -5 3 -10 0 -10 -8 0 -8 -9 -22 -20 -32 -11
-10 -20 -25 -20 -34 0 -9 -9 -27 -19 -41 l-19 -24 -37 19 c-35 19 -37 19 -49
3 -19 -26 -29 -22 -59 24 -23 35 -38 108 -23 108 2 0 13 3 23 6 15 5 16 4 3
-5 -11 -9 -1 -10 45 -5 33 4 69 10 80 15 11 5 34 6 50 3 17 -3 35 -6 40 -6z
m2795 -221 c-94 -42 -110 -50 -107 -54 3 -2 51 6 107 17 56 11 107 19 113 17
17 -5 -172 -84 -248 -102 -150 -36 -356 -104 -320 -105 6 0 -5 -9 -23 -20 -26
-16 -37 -18 -48 -9 -7 6 -24 9 -36 5 -25 -6 -88 -61 -88 -76 0 -6 -10 -6 -25
0 -20 7 -25 6 -25 -5 0 -8 -4 -15 -10 -15 -5 0 -10 6 -10 13 0 8 -3 8 -8 1 -4
-5 -23 -18 -44 -27 -39 -18 -62 -23 -38 -7 24 15 2 12 -95 -15 -83 -22 -91
-23 -113 -9 -14 9 -22 12 -19 7 4 -6 -7 -10 -23 -11 -34 -1 -53 -10 -45 -22 3
-4 -3 -14 -13 -21 -16 -13 -16 -12 -3 4 14 18 13 18 -20 12 -18 -3 -53 -10
-76 -14 -24 -4 -51 -15 -60 -23 -20 -17 -72 -30 -118 -29 -16 1 -52 -4 -78
-10 -26 -6 -51 -9 -53 -6 -3 3 14 20 38 37 l43 32 -32 -7 c-18 -3 -49 -15 -70
-25 -20 -10 -43 -16 -49 -13 -7 2 -26 -3 -43 -12 l-32 -16 7 27 c6 23 5 25
-12 16 -11 -6 -29 -21 -42 -34 -16 -18 -30 -23 -52 -20 -17 2 -30 10 -30 18 0
14 -22 19 -33 7 -7 -6 -42 -12 -81 -13 -11 -1 -22 4 -26 11 -6 8 -9 8 -15 -1
-6 -9 -9 -9 -15 0 -11 17 -57 2 -83 -29 -12 -14 -34 -32 -49 -40 -15 -8 -30
-22 -33 -32 -3 -9 -14 -19 -25 -22 -16 -4 -18 -11 -13 -41 5 -31 3 -36 -13
-34 -11 1 -45 -1 -76 -6 -77 -11 -91 -4 -43 22 50 27 43 27 -29 2 -31 -10 -69
-19 -84 -20 -15 0 -94 -3 -176 -6 -118 -5 -147 -3 -141 7 6 9 3 10 -11 4 -31
-14 -312 -18 -294 -5 12 9 10 10 -10 5 -43 -12 -208 -16 -185 -5 11 5 144 42
295 81 151 39 325 84 385 100 111 31 277 74 591 154 255 66 512 123 574 129
30 3 93 19 140 35 115 40 525 129 538 116 2 -2 -27 -13 -65 -25 -164 -50 -383
-123 -379 -127 2 -2 39 8 82 21 210 66 516 138 745 175 134 22 255 42 269 44
14 2 39 5 55 5 l30 1 -25 -12z m-3405 -86 c99 -12 200 -25 225 -30 38 -8 41
-10 23 -16 -13 -4 -23 -14 -23 -21 0 -14 -23 -12 -74 6 -12 4 -31 0 -46 -8
-25 -14 -28 -14 -48 6 -25 25 -72 30 -72 7 0 -8 -7 -15 -15 -15 -8 0 -15 -7
-15 -15 0 -16 -16 -20 -24 -6 -3 5 -32 12 -63 17 -32 4 -65 9 -73 11 -75 15
-83 15 -75 4 4 -7 14 -10 24 -6 12 5 13 3 5 -5 -9 -9 -17 -9 -33 -1 -12 7 -21
9 -21 6 0 -2 -22 9 -49 25 -66 41 -84 38 -27 -5 25 -20 46 -38 46 -41 0 -3 -4
-2 -10 1 -5 3 -17 2 -26 -3 -11 -6 -13 -11 -5 -16 6 -4 11 -12 11 -19 0 -6
-21 9 -47 34 -27 24 -59 54 -73 64 l-25 20 25 -30 c13 -17 40 -48 60 -70 19
-21 28 -33 18 -27 -10 8 -19 9 -22 3 -3 -5 -3 -11 1 -14 11 -5 -8 0 -32 9 -18
7 -18 6 -6 -9 12 -15 11 -17 -3 -17 -9 0 -16 -4 -16 -10 0 -25 -31 -6 -64 39
-43 59 -82 94 -52 47 10 -16 27 -44 38 -61 l19 -33 -37 -7 c-26 -4 -39 -3 -45
7 -7 11 -9 11 -9 0 0 -7 -4 -11 -9 -8 -5 3 -11 -1 -15 -9 -8 -21 -53 -19 -59
3 -3 9 -5 1 -6 -18 -1 -23 -4 -31 -10 -22 -7 11 -9 11 -14 -2 -4 -9 -13 -16
-21 -16 -10 0 -16 17 -21 58 -10 88 -12 100 -14 60 0 -20 -5 -48 -10 -61 -11
-28 -11 -28 -206 -6 -90 9 -253 25 -373 35 -35 3 -62 8 -59 10 2 3 78 20 168
39 318 66 595 123 649 134 82 15 428 5 635 -18z m508 -66 c395 -59 703 -112
804 -141 20 -6 20 -7 5 -35 -10 -16 -22 -29 -28 -29 -6 0 -53 9 -105 21 -52
11 -130 27 -174 35 -44 8 -93 20 -110 25 -27 10 -136 26 -220 33 -16 1 -40 -1
-53 -6 -17 -6 -21 -5 -16 4 5 7 2 9 -7 6 -8 -3 -27 1 -44 8 -24 10 -26 13 -10
15 11 0 0 5 -25 10 -25 5 -52 12 -60 15 -8 3 -31 8 -50 9 -89 8 -120 17 -120
36 0 24 5 24 213 -6z m642 -21 c125 -18 235 -43 235 -54 0 -20 -28 -29 -61
-20 -58 17 -211 40 -269 40 -49 0 -126 17 -170 37 -19 9 61 19 115 15 22 -2
90 -10 150 -18z m-1044 -85 c-53 -16 -28 -22 32 -9 61 14 169 6 462 -35 94
-13 197 -26 230 -30 154 -16 215 -27 215 -41 0 -15 -14 -18 -71 -15 -20 2 -40
-3 -44 -9 -4 -6 -18 -9 -34 -5 -19 4 -36 -1 -59 -19 l-34 -24 -39 39 c-21 21
-46 39 -54 39 -8 0 -23 -17 -34 -38 -27 -53 -47 -68 -66 -52 -12 10 -22 9 -50
-4 -19 -9 -35 -22 -35 -28 0 -7 -4 -7 -14 1 -11 9 -28 8 -75 -5 -40 -11 -57
-20 -49 -26 25 -15 -107 -2 -176 19 -18 5 -18 6 5 19 21 12 13 13 -65 7 -66
-5 -87 -3 -82 5 4 7 13 12 21 12 8 0 16 4 19 8 3 4 -37 6 -87 4 -51 -2 -89 -1
-85 3 4 4 38 18 75 31 92 32 18 22 -85 -12 -47 -15 -83 -21 -104 -17 l-31 6
28 14 c36 20 27 25 -21 12 -24 -7 -72 -9 -124 -5 -87 7 -323 36 -328 40 -6 6
396 81 538 100 134 19 172 23 220 23 l35 1 -34 -9z m2949 -177 c0 -18 -40 -43
-106 -67 -71 -26 -55 -26 28 -1 34 11 49 12 54 4 4 -7 2 -8 -4 -4 -7 4 -12 2
-12 -3 0 -6 -8 -12 -17 -12 -17 -1 -17 -2 0 -6 26 -7 21 -30 -10 -48 -16 -9
-20 -14 -10 -11 16 5 16 2 -4 -26 -13 -17 -18 -28 -11 -24 8 5 10 2 6 -9 -4
-9 -14 -13 -23 -11 -9 3 -27 -1 -40 -8 -39 -21 -7 -29 50 -11 29 8 54 13 56
11 8 -7 -44 -33 -80 -40 -31 -6 -42 -4 -52 11 -13 16 -16 17 -37 3 -19 -13
-91 -16 -448 -18 -234 -2 -422 -1 -420 2 3 2 39 14 80 25 483 129 958 250 983
251 9 0 17 -4 17 -8z"/>
<path d="M544 3955 c3 -8 9 -22 12 -30 4 -10 0 -15 -12 -15 -14 0 -16 -2 -5
-12 10 -11 14 -10 22 4 9 17 12 17 34 2 14 -9 25 -21 25 -27 0 -5 -9 -2 -20 8
-11 10 -23 15 -27 12 -3 -4 -1 -7 6 -7 8 0 11 -6 7 -16 -3 -8 -2 -12 4 -9 5 3
19 1 30 -5 15 -8 20 -21 20 -55 0 -37 3 -45 18 -45 10 0 29 -12 43 -26 19 -20
24 -37 24 -74 0 -41 3 -50 21 -54 22 -6 44 -44 44 -79 0 -17 2 -19 10 -7 8 12
12 12 36 0 15 -8 32 -28 39 -44 10 -23 13 -25 19 -11 12 33 -47 94 -79 82 -8
-4 -15 5 -18 22 -3 15 -17 33 -31 41 -20 10 -23 16 -15 27 8 9 8 13 0 13 -6 0
-11 5 -11 11 0 6 7 9 15 5 8 -3 15 -1 15 4 0 6 -6 10 -14 10 -16 0 -28 48 -14
56 14 9 -13 35 -31 30 -25 -8 -47 16 -48 49 -2 55 -18 118 -32 123 -8 3 -11 0
-7 -7 4 -6 3 -11 -3 -11 -5 0 -11 5 -13 11 -2 6 -19 17 -37 25 -29 12 -32 12
-27 -1z"/>
<path d="M4525 3310 c-3 -5 -1 -10 6 -10 8 0 8 -4 -1 -15 -7 -9 -23 -13 -37
-10 -21 3 -23 2 -11 -12 11 -13 9 -18 -10 -31 -12 -8 -22 -20 -22 -27 0 -20
-49 -55 -76 -55 -18 0 -24 5 -24 23 0 38 21 56 69 59 29 2 46 8 49 18 4 12 2
13 -9 4 -8 -6 -31 -11 -52 -11 -28 -1 -43 -7 -54 -22 -8 -12 -19 -19 -24 -16
-5 4 -9 1 -9 -4 0 -6 5 -11 10 -11 6 0 10 -5 10 -11 0 -5 -5 -7 -12 -3 -6 4
-8 3 -4 -4 11 -19 -13 -23 -37 -7 -23 14 -30 14 -95 -7 -39 -12 -69 -25 -66
-30 3 -4 -2 -5 -11 -2 -8 4 -21 2 -28 -3 -6 -5 -45 -20 -85 -32 -81 -25 -193
-70 -176 -71 6 0 37 10 70 22 40 14 85 22 139 23 44 0 99 5 123 9 35 7 42 6
42 -7 0 -9 -10 -18 -22 -22 -13 -3 -32 -10 -43 -15 -30 -14 -160 -59 -247 -85
-73 -22 -112 -37 -183 -70 -16 -8 -43 -17 -58 -21 -15 -3 -26 -8 -24 -11 5 -4
97 18 177 42 340 105 426 136 413 148 -3 4 1 7 10 7 10 0 17 4 17 9 0 5 10 13
23 16 12 4 37 13 56 22 54 24 87 31 102 22 12 -7 11 -9 -1 -10 -10 0 -8 -3 5
-9 18 -8 18 -9 2 -9 -10 -1 -32 -8 -49 -17 -25 -13 -36 -14 -50 -5 -13 8 -18
8 -18 0 0 -6 -7 -9 -15 -6 -8 4 -17 2 -20 -2 -2 -5 9 -11 26 -15 33 -6 219 49
219 65 0 5 -12 4 -26 -1 -40 -16 -44 -13 -44 33 0 77 68 147 158 162 23 4 42
11 42 17 0 10 -51 5 -86 -9 -8 -3 -14 0 -14 6 0 14 -17 14 -25 1z"/>
<path d="M1 2811 c1 -120 2 -131 20 -136 11 -4 25 -2 32 3 41 34 277 54 329
27 18 -9 36 -11 42 -6 16 12 65 20 68 10 5 -13 124 -29 275 -35 115 -6 146 -4
159 7 15 12 5 15 -82 20 l-99 5 103 2 c60 1 102 6 102 12 0 6 8 10 18 10 14 0
15 2 2 10 -21 13 -5 23 18 11 12 -6 29 -11 39 -10 16 0 16 1 -2 9 -19 8 -8 14
21 11 6 -1 16 5 23 12 9 12 -17 15 -155 20 -179 7 -259 26 -119 27 54 1 74 4
60 10 -14 6 1 9 50 10 39 1 80 1 92 1 11 -1 24 3 29 10 5 9 -5 11 -40 7 -26
-3 -44 -3 -41 1 4 3 50 9 103 12 95 5 94 5 -44 7 -250 3 -798 36 -962 58 l-43
5 2 -130z"/>
<path d="M1320 1848 c-41 -16 -144 -28 -154 -18 -14 14 -39 13 -31 -1 5 -7
-18 -9 -75 -5 -53 4 -79 3 -75 -4 3 -5 -1 -10 -10 -10 -9 0 -14 3 -11 8 2 4
-37 4 -87 1 -144 -10 -829 -15 -854 -6 -22 8 -23 6 -23 -36 l0 -45 47 -6 c167
-22 237 -27 493 -32 157 -3 291 -9 298 -13 8 -5 0 -8 -20 -8 -18 -1 -210 -5
-426 -9 -215 -4 -392 -11 -392 -15 0 -13 737 -11 855 2 238 25 267 29 283 39
14 9 11 10 -13 6 -85 -14 -165 -17 -165 -7 0 6 22 11 53 12 28 0 70 3 91 7 22
4 -144 6 -368 4 -351 -3 -418 -1 -482 13 -41 9 -84 14 -96 10 -18 -5 -20 -4
-8 4 13 10 13 11 0 11 -13 0 -13 1 0 10 21 13 39 12 20 -1 -12 -8 -10 -9 10
-5 14 3 40 6 58 6 20 0 31 4 27 10 -3 6 0 10 7 10 7 0 63 3 123 5 61 2 281 7
490 10 209 4 396 8 415 9 19 2 96 7 170 12 113 6 128 9 95 16 -22 5 -79 8
-126 6 -66 -2 -85 0 -82 10 6 14 -3 14 -37 0z"/>
<path d="M2820 1840 c-23 -12 -55 -19 -93 -20 -32 0 -71 -7 -86 -15 -16 -8
-31 -12 -33 -10 -16 16 -90 14 -148 -4 -36 -12 -119 -26 -185 -31 -66 -6 -147
-15 -180 -20 -33 -6 -103 -10 -155 -11 -54 0 -132 -9 -180 -19 -71 -16 -76
-18 -30 -14 30 3 71 10 90 15 20 5 83 8 140 8 58 0 114 3 125 6 13 4 12 1 -5
-8 -32 -19 -138 -28 -160 -15 -12 8 -46 5 -121 -10 -57 -11 -133 -20 -169 -20
-61 0 -62 1 -20 7 30 5 5 7 -77 7 -68 1 -123 -3 -123 -8 0 -4 12 -7 28 -6 15
1 50 1 77 -1 l50 -2 -45 -14 c-25 -8 -54 -14 -65 -14 -49 2 -175 -15 -175 -23
0 -5 12 -7 28 -4 15 2 75 8 134 11 60 4 106 11 103 15 -3 5 17 9 45 8 27 0 50
-4 50 -9 0 -5 5 -9 10 -9 6 0 10 6 10 13 0 7 14 13 33 13 302 11 380 16 422
24 28 5 93 14 145 20 52 6 126 15 163 21 65 11 68 12 52 29 -16 18 -14 19 32
25 26 3 61 8 77 10 l28 5 -30 -29 c-17 -15 -34 -40 -37 -54 -4 -14 -14 -28
-23 -30 -12 -3 -10 -5 6 -6 16 -1 22 5 22 20 0 26 62 87 107 105 51 22 111 18
134 -8 l20 -23 -3 23 c-2 15 7 30 27 47 36 29 32 31 -15 5z"/>
</g>
</svg>
